<mxfile host="65bd71144e">
    <diagram id="GaLHojAk8yi6TXdrXlnM" name="第 1 页">
        <mxGraphModel dx="732" dy="515" grid="1" gridSize="10" guides="1" tooltips="1" connect="1" arrows="1" fold="1" page="1" pageScale="1" pageWidth="827" pageHeight="1169" math="0" shadow="0">
            <root>
                <mxCell id="0"/>
                <mxCell id="1" parent="0"/>
                <mxCell id="2" value="ubbatchedUpdates" style="edgeStyle=none;html=1;exitX=0.5;exitY=1;exitDx=0;exitDy=0;" parent="1" source="3" target="14" edge="1">
                    <mxGeometry relative="1" as="geometry"/>
                </mxCell>
                <mxCell id="3" value="ReactDOM.render" style="rounded=0;whiteSpace=wrap;html=1;" parent="1" vertex="1">
                    <mxGeometry x="662" y="70" width="120" height="60" as="geometry"/>
                </mxCell>
                <mxCell id="4" style="edgeStyle=none;html=1;exitX=0;exitY=0.5;exitDx=0;exitDy=0;entryX=1;entryY=0.75;entryDx=0;entryDy=0;" parent="1" source="5" target="28" edge="1">
                    <mxGeometry relative="1" as="geometry"/>
                </mxCell>
                <mxCell id="5" value="performSyncWorkOnRoot" style="rounded=0;whiteSpace=wrap;html=1;" parent="1" vertex="1">
                    <mxGeometry x="492" y="440" width="170" height="60" as="geometry"/>
                </mxCell>
                <mxCell id="6" value="dispathAction" style="rounded=0;whiteSpace=wrap;html=1;" parent="1" vertex="1">
                    <mxGeometry x="442" y="180" width="120" height="60" as="geometry"/>
                </mxCell>
                <mxCell id="7" style="edgeStyle=none;html=1;exitX=0.5;exitY=1;exitDx=0;exitDy=0;entryX=0.5;entryY=0;entryDx=0;entryDy=0;" parent="1" source="8" target="21" edge="1">
                    <mxGeometry relative="1" as="geometry"/>
                </mxCell>
                <mxCell id="8" value="ensureRootIsScheduled" style="rounded=0;whiteSpace=wrap;html=1;" parent="1" vertex="1">
                    <mxGeometry x="862" y="440" width="150" height="60" as="geometry"/>
                </mxCell>
                <mxCell id="9" style="edgeStyle=none;html=1;exitX=0.5;exitY=1;exitDx=0;exitDy=0;entryX=0.5;entryY=0;entryDx=0;entryDy=0;" parent="1" source="12" target="5" edge="1">
                    <mxGeometry relative="1" as="geometry"/>
                </mxCell>
                <mxCell id="10" value="lane === SyncLane" style="edgeLabel;html=1;align=center;verticalAlign=middle;resizable=0;points=[];" parent="9" vertex="1" connectable="0">
                    <mxGeometry x="0.0484" y="4" relative="1" as="geometry">
                        <mxPoint as="offset"/>
                    </mxGeometry>
                </mxCell>
                <mxCell id="11" value="异步任务" style="edgeStyle=none;html=1;exitX=0.5;exitY=1;exitDx=0;exitDy=0;entryX=0.5;entryY=0;entryDx=0;entryDy=0;" parent="1" source="12" target="8" edge="1">
                    <mxGeometry relative="1" as="geometry">
                        <Array as="points"/>
                    </mxGeometry>
                </mxCell>
                <mxCell id="12" value="scheduleWork" style="rounded=0;whiteSpace=wrap;html=1;" parent="1" vertex="1">
                    <mxGeometry x="662" y="330" width="120" height="60" as="geometry"/>
                </mxCell>
                <mxCell id="13" value="设置lane&lt;br&gt;新建一个update&lt;br&gt;添加到fiber的updateQuene里" style="edgeStyle=none;html=1;exitX=0.5;exitY=1;exitDx=0;exitDy=0;entryX=0.5;entryY=0;entryDx=0;entryDy=0;" parent="1" source="14" target="12" edge="1">
                    <mxGeometry relative="1" as="geometry"/>
                </mxCell>
                <mxCell id="14" value="updateContainer" style="rounded=0;whiteSpace=wrap;html=1;" parent="1" vertex="1">
                    <mxGeometry x="662" y="210" width="120" height="60" as="geometry"/>
                </mxCell>
                <mxCell id="15" style="edgeStyle=none;html=1;exitX=0.5;exitY=1;exitDx=0;exitDy=0;entryX=1;entryY=0.5;entryDx=0;entryDy=0;" parent="1" source="16" target="12" edge="1">
                    <mxGeometry relative="1" as="geometry">
                        <Array as="points">
                            <mxPoint x="912" y="360"/>
                        </Array>
                    </mxGeometry>
                </mxCell>
                <mxCell id="16" value="setState" style="rounded=0;whiteSpace=wrap;html=1;" parent="1" vertex="1">
                    <mxGeometry x="852" y="180" width="120" height="50" as="geometry"/>
                </mxCell>
                <mxCell id="17" value="" style="endArrow=classic;html=1;exitX=0.5;exitY=1;exitDx=0;exitDy=0;entryX=0;entryY=0.5;entryDx=0;entryDy=0;" parent="1" source="6" target="12" edge="1">
                    <mxGeometry width="50" height="50" relative="1" as="geometry">
                        <mxPoint x="742" y="410" as="sourcePoint"/>
                        <mxPoint x="792" y="360" as="targetPoint"/>
                        <Array as="points">
                            <mxPoint x="502" y="360"/>
                        </Array>
                    </mxGeometry>
                </mxCell>
                <mxCell id="18" value="delay &amp;gt; 添加到延时任务" style="edgeStyle=none;html=1;exitX=0.5;exitY=1;exitDx=0;exitDy=0;entryX=0.5;entryY=0;entryDx=0;entryDy=0;" parent="1" source="19" target="27" edge="1">
                    <mxGeometry y="15" relative="1" as="geometry">
                        <mxPoint as="offset"/>
                    </mxGeometry>
                </mxCell>
                <mxCell id="19" value="unstable_scheduleCallback" style="rounded=0;whiteSpace=wrap;html=1;" parent="1" vertex="1">
                    <mxGeometry x="857" y="700" width="160" height="60" as="geometry"/>
                </mxCell>
                <mxCell id="20" style="edgeStyle=none;html=1;exitX=0.5;exitY=1;exitDx=0;exitDy=0;entryX=0.5;entryY=0;entryDx=0;entryDy=0;" parent="1" source="21" target="19" edge="1">
                    <mxGeometry relative="1" as="geometry"/>
                </mxCell>
                <mxCell id="21" value="scheduleCallback" style="rounded=0;whiteSpace=wrap;html=1;" parent="1" vertex="1">
                    <mxGeometry x="862" y="600" width="150" height="60" as="geometry"/>
                </mxCell>
                <mxCell id="22" value="判断是否有Fiber过期，设置高优先级，需要立即执行&lt;br&gt;判断是否还有新的Fiber,没有则重置&lt;br&gt;判断新Fiber和正在处理的Fiber优先级" style="text;html=1;strokeColor=none;fillColor=none;align=left;verticalAlign=middle;whiteSpace=wrap;rounded=0;" parent="1" vertex="1">
                    <mxGeometry x="942" y="540" width="360" height="40" as="geometry"/>
                </mxCell>
                <mxCell id="23" style="edgeStyle=none;html=1;exitX=0.5;exitY=1;exitDx=0;exitDy=0;entryX=0.5;entryY=0;entryDx=0;entryDy=0;" parent="1" source="24" target="32" edge="1">
                    <mxGeometry relative="1" as="geometry"/>
                </mxCell>
                <mxCell id="24" value="任务队列&lt;br&gt;taskQuene" style="rounded=0;whiteSpace=wrap;html=1;" parent="1" vertex="1">
                    <mxGeometry x="632" y="800" width="150" height="60" as="geometry"/>
                </mxCell>
                <mxCell id="25" style="edgeStyle=none;html=1;exitX=0;exitY=0.5;exitDx=0;exitDy=0;entryX=1;entryY=0.5;entryDx=0;entryDy=0;" parent="1" source="27" target="40" edge="1">
                    <mxGeometry relative="1" as="geometry"/>
                </mxCell>
                <mxCell id="26" style="edgeStyle=none;html=1;exitX=0.75;exitY=0;exitDx=0;exitDy=0;" parent="1" source="27" edge="1">
                    <mxGeometry relative="1" as="geometry">
                        <mxPoint x="1052" y="1190" as="targetPoint"/>
                    </mxGeometry>
                </mxCell>
                <mxCell id="27" value="延时任务&lt;br&gt;timeQuene" style="rounded=0;whiteSpace=wrap;html=1;" parent="1" vertex="1">
                    <mxGeometry x="862" y="1260" width="150" height="60" as="geometry"/>
                </mxCell>
                <mxCell id="28" value="同步任务直接执行&lt;br&gt;异步任务走完调度逻辑后在执行&lt;br&gt;&lt;br&gt;到这里之后就去执行DOM diff" style="text;html=1;strokeColor=none;fillColor=none;align=left;verticalAlign=middle;whiteSpace=wrap;rounded=0;" parent="1" vertex="1">
                    <mxGeometry x="292" y="450" width="140" height="100" as="geometry"/>
                </mxCell>
                <mxCell id="29" value="" style="endArrow=classic;html=1;entryX=1;entryY=0.5;entryDx=0;entryDy=0;" parent="1" target="24" edge="1">
                    <mxGeometry width="50" height="50" relative="1" as="geometry">
                        <mxPoint x="937" y="761" as="sourcePoint"/>
                        <mxPoint x="1002" y="750" as="targetPoint"/>
                        <Array as="points">
                            <mxPoint x="882" y="830"/>
                        </Array>
                    </mxGeometry>
                </mxCell>
                <mxCell id="30" value="delay=0,&lt;br&gt;添加到任务队列" style="text;html=1;strokeColor=none;fillColor=none;align=center;verticalAlign=middle;whiteSpace=wrap;rounded=0;" parent="1" vertex="1">
                    <mxGeometry x="782" y="800" width="100" height="20" as="geometry"/>
                </mxCell>
                <mxCell id="31" value="通过MessageChannel&lt;br&gt;在宏任务中调用" style="edgeStyle=none;html=1;exitX=0.5;exitY=1;exitDx=0;exitDy=0;entryX=0.5;entryY=0;entryDx=0;entryDy=0;" parent="1" source="32" target="37" edge="1">
                    <mxGeometry relative="1" as="geometry">
                        <Array as="points"/>
                    </mxGeometry>
                </mxCell>
                <mxCell id="32" value="调用&lt;br&gt;requestHostCallback" style="rounded=0;whiteSpace=wrap;html=1;" parent="1" vertex="1">
                    <mxGeometry x="632" y="910" width="150" height="60" as="geometry"/>
                </mxCell>
                <mxCell id="33" style="edgeStyle=none;html=1;exitX=0.5;exitY=1;exitDx=0;exitDy=0;entryX=0.5;entryY=0;entryDx=0;entryDy=0;" parent="1" source="35" target="40" edge="1">
                    <mxGeometry relative="1" as="geometry"/>
                </mxCell>
                <mxCell id="34" style="edgeStyle=none;html=1;exitX=1;exitY=0.5;exitDx=0;exitDy=0;entryX=1;entryY=0.5;entryDx=0;entryDy=0;" parent="1" source="35" target="37" edge="1">
                    <mxGeometry relative="1" as="geometry">
                        <mxPoint x="892" y="1060" as="targetPoint"/>
                        <Array as="points">
                            <mxPoint x="902" y="1190"/>
                            <mxPoint x="902" y="1080"/>
                        </Array>
                    </mxGeometry>
                </mxCell>
                <mxCell id="35" value="调用&lt;br&gt;scheduledHostCallback" style="rounded=0;whiteSpace=wrap;html=1;" parent="1" vertex="1">
                    <mxGeometry x="632" y="1160" width="150" height="60" as="geometry"/>
                </mxCell>
                <mxCell id="36" style="edgeStyle=none;html=1;exitX=0.5;exitY=1;exitDx=0;exitDy=0;entryX=0.5;entryY=0;entryDx=0;entryDy=0;" parent="1" source="37" target="35" edge="1">
                    <mxGeometry relative="1" as="geometry"/>
                </mxCell>
                <mxCell id="37" value="performWorkUnitilDeadline" style="rounded=0;whiteSpace=wrap;html=1;" parent="1" vertex="1">
                    <mxGeometry x="632" y="1050" width="150" height="60" as="geometry"/>
                </mxCell>
                <mxCell id="38" value="timeQuene" style="edgeStyle=none;html=1;exitX=0.5;exitY=1;exitDx=0;exitDy=0;entryX=0.25;entryY=1;entryDx=0;entryDy=0;" parent="1" source="40" target="5" edge="1">
                    <mxGeometry relative="1" as="geometry">
                        <mxPoint x="442" y="1000" as="targetPoint"/>
                        <Array as="points">
                            <mxPoint x="707" y="1370"/>
                            <mxPoint x="535" y="1370"/>
                        </Array>
                    </mxGeometry>
                </mxCell>
                <mxCell id="39" style="edgeStyle=none;html=1;exitX=0;exitY=0.5;exitDx=0;exitDy=0;entryX=0;entryY=0.5;entryDx=0;entryDy=0;" parent="1" source="40" target="24" edge="1">
                    <mxGeometry relative="1" as="geometry">
                        <Array as="points">
                            <mxPoint x="582" y="1290"/>
                            <mxPoint x="582" y="1060"/>
                            <mxPoint x="582" y="830"/>
                        </Array>
                    </mxGeometry>
                </mxCell>
                <mxCell id="40" value="workLoop" style="rounded=0;whiteSpace=wrap;html=1;" parent="1" vertex="1">
                    <mxGeometry x="632" y="1260" width="150" height="60" as="geometry"/>
                </mxCell>
                <mxCell id="41" value="scheduleHostCallback为传入的callback,此处flushwork" style="text;html=1;strokeColor=none;fillColor=none;align=center;verticalAlign=middle;whiteSpace=wrap;rounded=0;" parent="1" vertex="1">
                    <mxGeometry x="712" y="1120" width="190" height="20" as="geometry"/>
                </mxCell>
                <mxCell id="42" value="currentTask=peek(taskQueue)" style="text;html=1;strokeColor=none;fillColor=none;align=center;verticalAlign=middle;whiteSpace=wrap;rounded=0;" parent="1" vertex="1">
                    <mxGeometry x="522" y="1380" width="200" height="20" as="geometry"/>
                </mxCell>
                <mxCell id="43" value="advanceTimers()判断，把timeQuene里的任务添加到taskQuene" style="text;html=1;strokeColor=none;fillColor=none;align=center;verticalAlign=middle;whiteSpace=wrap;rounded=0;" parent="1" vertex="1">
                    <mxGeometry x="1052" y="1155" width="270" height="70" as="geometry"/>
                </mxCell>
                <mxCell id="44" value="hasMoreWork存在，有任务继续这个流程" style="text;html=1;strokeColor=none;fillColor=none;align=center;verticalAlign=middle;whiteSpace=wrap;rounded=0;" parent="1" vertex="1">
                    <mxGeometry x="802" y="1040" width="120" height="30" as="geometry"/>
                </mxCell>
            </root>
        </mxGraphModel>
    </diagram>
</mxfile>